<svg width="82" height="108" viewBox="0 0 82 108" fill="none" xmlns="http://www.w3.org/2000/svg">
<path d="M6.09963 1.70315C3.62868 12.1109 0.675009 22.3469 2.05232 33.0968C2.47189 36.3716 3.33429 47.5731 6.83318 49.3365C16.3735 54.1447 28.6572 28.4679 32.2849 23.4302C41.6126 10.4768 52.2881 5.35172 59.154 23.7538C66.5604 43.6041 70.6415 71.034 69.3886 92.3053C69.0571 97.9325 71.8712 110.498 65.5791 101.239C63.32 97.9144 53.5132 84.1212 62.2088 94.0116C62.9837 94.8929 70.0611 105.989 70.5672 105.645C71.792 104.812 73.0908 96.7662 74.2358 94.9032C76.2204 91.6742 76.9908 88.9522 80.215 86.7613" stroke="white" stroke-width="3.40473" stroke-linecap="round"/>
</svg>
